<svg width="32" height="32" viewBox="0 0 32 32" fill="none" xmlns="http://www.w3.org/2000/svg">
<path d="M26.2386 2.56006H5.75859C3.99219 2.56006 2.55859 3.99366 2.55859 5.76006V26.2401C2.55859 28.0065 3.99219 29.4401 5.75859 29.4401H26.2386C28.005 29.4401 29.4386 28.0065 29.4386 26.2401V5.76006C29.4386 3.99366 28.005 2.56006 26.2386 2.56006ZM10.8786 12.8001V24.9601H7.03859V12.8001H10.8786ZM7.03859 9.26086C7.03859 8.36486 7.80659 7.68006 8.95859 7.68006C10.1106 7.68006 10.8338 8.36486 10.8786 9.26086C10.8786 10.1569 10.1618 10.8801 8.95859 10.8801C7.80659 10.8801 7.03859 10.1569 7.03859 9.26086ZM24.9586 24.9601H21.1186C21.1186 24.9601 21.1186 19.0337 21.1186 18.5601C21.1186 17.2801 20.4786 16.0001 18.8786 15.9745H18.8274C17.2786 15.9745 16.6386 17.2929 16.6386 18.5601C16.6386 19.1425 16.6386 24.9601 16.6386 24.9601H12.7986V12.8001H16.6386V14.4385C16.6386 14.4385 17.8738 12.8001 20.357 12.8001C22.8978 12.8001 24.9586 14.5473 24.9586 18.0865V24.9601Z" fill="url(#paint0_linear_132_532)"/>
<defs>
<linearGradient id="paint0_linear_132_532" x1="40.9129" y1="63.4296" x2="-8.53259" y2="61.4935" gradientUnits="userSpaceOnUse">
<stop stop-color="#F8C346"/>
<stop offset="1" stop-color="#FDED88"/>
</linearGradient>
</defs>
</svg>
